<svg id="Logo_and_Name" data-name="Logo and Name" xmlns="http://www.w3.org/2000/svg" viewBox="0 0 98.6278 74.7788"><defs><style>.cls-1{fill:#fff200;}</style></defs><title>Artboard 1</title><path class="cls-1" d="M26.8494,55.7607l-11.852-13.668,1.466-16.712,14.02-11.145L82.6344,18.8l-3.632,41.524Zm-7.245-19.483a1.8666,1.8666,0,1,0-1.697-2.023A1.8694,1.8694,0,0,0,19.6044,36.2777Z"/><path d="M26.8164,56.15l.033-.39.296-.258-.296.258-.033.39-.158-.013-12.066-13.913,1.494-17.046,14.275-11.346,52.695,4.61-3.7,42.303-52.54-4.595Zm51.828,3.746,3.562-40.742-51.601-4.515-13.768,10.944-1.431,16.381,11.635,13.42,51.603,4.512ZM19.57,36.6667l.033-.39-.036.39a2.2567,2.2567,0,0,1-2.061-2.248h0c0-.066.003-.133.009-.2h0a2.2572,2.2572,0,0,1,2.247-2.062h0c.067,0,.13.003.201.008h0a2.259,2.259,0,0,1,2.062,2.251h0a1.738,1.738,0,0,1-.01.198h0a2.2589,2.2589,0,0,1-2.251,2.061h0a1.6222,1.6222,0,0,1-.194-.008Zm.193-.774a1.4768,1.4768,0,0,0,1.472-1.346h0a1.0959,1.0959,0,0,0,.005-.129h0a1.4758,1.4758,0,0,0-1.348-1.47h0c-.041-.004-.086-.007-.13-.007h0a1.4744,1.4744,0,0,0-1.467,1.349h0c-.003.043-.003.087-.003.131h0a1.4712,1.4712,0,0,0,1.346,1.468h0c.043.004.085.004.125.004Z"/><path id="R" d="M75.1024,41.8847a1.037,1.037,0,1,1,.944,1.12A1.0257,1.0257,0,0,1,75.1024,41.8847Zm.17.015a.8678.8678,0,1,0,.938-.787A.86.86,0,0,0,75.2724,41.9Zm1.283.703-.191-.018-.248-.559-.215-.02-.045.533-.171-.012.1-1.158.487.042c.21.018.395.095.373.34a.2939.2939,0,0,1-.336.291Zm-.615-1.05-.024.288.178.018c.155.012.367.059.385-.103.014-.147-.111-.169-.25-.181Z"/><path d="M64.1624,39.6687l1.658,3.422.184.014a12.0449,12.0449,0,0,1,.681-1.118l1.43-1.972,7.115.621-6.579,6.559-.469,5.365-6.194-.544.468-5.361-5.457-7.613Z"/><path d="M57.2074,39.0607l-.645,7.36c-.318,3.631-3.533,5.016-8.238,4.6-4.7-.406-7.634-2.327-7.315-5.958l.643-7.365,6.108.534-.605,6.933c-.086.977-.116,1.838,1.508,1.98,1.628.139,1.746-.713,1.834-1.688l.606-6.933Z"/><path d="M26.3264,36.3367l7.373.643c3.375.296,6.767,1.174,6.517,4.047a2.6575,2.6575,0,0,1-2.507,2.307l-.009.101c1.854.645,2.967,1.739,2.837,3.226-.225,2.56-3.628,3.142-6.678,2.876l-8.619-.755Zm6.031,5.351c.924.079,1.971.105,2.046-.754.078-.925-1.104-.963-2.032-1.042l-.436-.039-.157,1.783Zm-.989,4.634.716.066c1.042.09,2.544.203,2.635-.82.089-1.041-1.53-1.163-2.547-1.253l-.624-.054Z"/><path d="M66.89,25.8657l13.313,1.162-.355,4.043-3.481-.419-.743,8.517-6.33-.555.742-8.516-3.5-.19Z"/><path d="M54.0434,32.7907l.304.208a8.2666,8.2666,0,0,0,3.854,1.484c.621.055,1.632-.04,1.684-.603.047-.56-.778-.683-1.349-.817l-1.258-.274c-2.445-.529-4.433-1.752-4.262-3.699.256-2.956,4.167-4.276,7.959-3.945a13.6686,13.6686,0,0,1,5.427,1.573l-1.989,3.035a8.4146,8.4146,0,0,0-3.593-1.262c-.551-.048-1.375.03-1.418.54-.042.464.739.601,1.216.724l1.414.356c2.641.662,4.494,1.856,4.308,3.969-.262,2.971-4.176,4.11-7.945,3.78a21.1129,21.1129,0,0,1-6.603-1.727Z"/><path d="M40.5794,23.5637l11.715,1.024-.298,3.399-5.338-.467-.103,1.188,4.878.426-.286,3.234-4.876-.424-.106,1.221,5.523.481-.297,3.402-11.9-1.041Z"/><path d="M25.0184,22.13l7.372.646c3.375.293,6.766,1.174,6.515,4.047a2.6592,2.6592,0,0,1-2.507,2.308l-.011.102c1.852.642,2.969,1.736,2.84,3.223-.225,2.56-3.628,3.143-6.678,2.876l-8.62-.756Zm6.029,5.352c.926.082,1.969.105,2.043-.752.083-.924-1.103-.962-2.026-1.043l-.438-.038-.155,1.782Zm-.986,4.638.714.062c1.04.091,2.544.207,2.632-.817.089-1.04-1.528-1.165-2.544-1.252l-.626-.057Z"/></svg>
